<?xml version="1.0" encoding="utf-8"?>
<svg width="32px" height="32px" viewBox="0 0 32 32" version="1.1" xmlns="http://www.w3.org/2000/svg">
   <path fill="#ddd" d="m0 0h32v32h-32z" />
   <path fill="rgb(52, 116, 240)" d="M 31.997993,0 V 32 H 0.00200602 V 0 Z M 25.141711,20 H 6.8582893 v 2 H 25.141711 Z M 11.493817,8.3263059 6.8377497,17.014207 H 9.4949689 L 12.414194,11.469306 15.258651,17 h 3.026776 L 13.378126,8.3340929 12.48047,8.3443059 Z M 21.142212,10 c -2.208862,0 -3.999498,1.567003 -3.999498,3.5 0,1.932997 1.790636,3.5 3.999498,3.5 0.613423,0 1.194591,-0.120851 1.714109,-0.336831 L 22.856283,17 h 2.285428 v -3.5 l -0.0059,-0.192035 C 25.021871,11.464278 23.277445,10 21.142212,10 Z m 0,2 c 0.946656,0 1.714071,0.671573 1.714071,1.5 0,0.828427 -0.767415,1.5 -1.714071,1.5 -0.946654,0 -1.71407,-0.671573 -1.71407,-1.5 0,-0.828427 0.767416,-1.5 1.71407,-1.5 z" />
</svg>
